# AST/ASF file generated using VICON BodyLanguage
# -----------------------------------------------
:version 1.10
:name VICON
:units
  mass 1.0
  length 0.45
  angle deg
:documentation
   .ast/.asf automatically generated from VICON data using
   VICON BodyBuilder and BodyLanguage model FoxedUp or BRILLIANT.MOD
:root
   order TX TY TZ RX RY RZ
   axis XYZ
   position 0 0 0  
   orientation 0 0 0 
:bonedata
  begin
     id 1 
     name lhipjoint
     direction 0.645893 -0.654526 0.392961 
     length 2.38111 
     axis 0 0 0  XYZ
  end
  begin
     id 2 
     name lfemur
     direction 0.34202 -0.939693 0  
     length 6.6822  
     axis 0 0 20  XYZ
    dof rx ry rz
    limits (-160.0 20.0)
           (-70.0 70.0)
           (-60.0 70.0)
  end
  begin
     id 3 
     name ltibia
     direction 0.34202 -0.939693 0   
     length 6.93904   
     axis 0 0 20   XYZ
    dof rx
    limits (-10.0 170.0)
  end
  begin
     id 4 
     name lfoot
     direction 0.0694967 -0.190941 0.979138   
     length 2.13616   
     axis -90 7.62852e-016 20   XYZ
    dof rx rz
    limits (-45.0 90.0)
           (-70.0 20.0)
  end
  begin
     id 5 
     name ltoes
     direction 1.535e-011 -4.2202e-011 1   
     length 1.07536   
     axis -90 7.62852e-016 20   XYZ
    dof rx
    limits (-90.0 20.0)
  end
  begin
     id 6 
     name rhipjoint
     direction -0.700219 -0.612087 0.367481   
     length 2.54621  
     axis 0 0 0  XYZ 
  end
  begin
     id 7 
     name rfemur
     direction -0.34202 -0.939693 0   
     length 6.55353   
     axis 0 0 -20   XYZ
    dof rx ry rz
    limits (-160.0 20.0)
           (-70.0 70.0)
           (-70.0 60.0)
  end
  begin
     id 8 
     name rtibia
     direction -0.34202 -0.939693 0   
     length 6.8736   
     axis 0 0 -20   XYZ
    dof rx
    limits (-10.0 170.0)
 end
 begin
     id 9 
     name rfoot
     direction -0.0679995 -0.186827 0.980037   
     length 2.1218  
     axis -90 -7.62852e-016 -20   XYZ
    dof rx rz
    limits (-45.0 90.0)
           (-20.0 70.0)
  end
  begin
     id 10 
     name rtoes
     direction -1.53589e-011 -4.21772e-011 1   
     length 1.06864   
     axis -90 -7.62852e-016 -20   XYZ
    dof rx
    limits (-90.0 20.0)
  end
  begin
     id 11 
     name lowerback
     direction -0.0416607 0.996347 -0.0745409   
     length 2.12205   
     axis 0 0 0   XYZ
    dof rx ry rz
    limits (-20.0 45.0)
           (-30.0 30.0)
           (-30.0 30.0)
  end
  begin
     id 12 
     name upperback
     direction -0.000153993 0.999276 -0.0380568   
     length 2.12759   
     axis 0 0 0   XYZ
    dof rx ry rz
    limits (-20.0 45.0)
           (-30.0 30.0)
           (-30.0 30.0)
  end
  begin
     id 13 
     name thorax
     direction 0.0187671 0.999821 -0.00241421   
     length 2.13704   
     axis 0 0 0   XYZ
    dof rx ry rz
    limits (-20.0 45.0)
           (-30.0 30.0)
           (-30.0 30.0)
  end
  begin
     id 14 
     name lowerneck
     direction 0.0268157 0.964865 0.261374   
     length 1.65253   
     axis 0 0 0   XYZ
    dof rx ry rz
    limits (-20.0 45.0)
           (-30.0 30.0)
           (-30.0 30.0)
  end
  begin
     id 15 
     name upperneck
     direction 0.00263774 0.939908 -0.341418   
     length 1.72375   
     axis 0 0 0   XYZ
    dof rx ry rz
    limits (-20.0 45.0)
           (-30.0 30.0)
           (-30.0 30.0)
  end
  begin
     id 16
     name head
     direction -0.00526001 0.989001 -0.147818  
     length 1.74878  
     axis 0 0 0   XYZ
    dof rx ry rz
    limits (-20.0 45.0)
           (-30.0 30.0)
           (-30.0 30.0)
  end
  begin
     id 17 
     name lclavicle
     direction 0.881214 0.461162 -0.103884  
     length 3.25108  
     axis 0 0 0   XYZ
    dof ry rz
    limits (-20.0 10.0)
           (0.0 20.0)
  end
  begin
     id 18 
     name lhumerus
     direction 1 -4.4899e-011 3.38092e-027   
     length 4.87408   
     axis 180 -30 -90   XYZ
    dof rx ry rz
    limits (-60.0 90.0)
           (-90.0 90.0)
           (-90.0 90.0)
  end
  begin
     id 19
     name lradius
     direction 1 -4.48931e-011 9.96288e-027   
     length 2.76729   
     axis 180 -30 -90   XYZ
    dof rx
    limits (-10.0 170.0)
  end
  begin
     id 20
     name lwrist
     direction 1 -4.4896e-011 1.50617e-026   
     length 1.38364   
     axis -9.31234e-015 90 90   XYZ
    dof ry
    limits (-180.0 0.0)
 end
  begin
     id 21 
     name lhand
     direction 1 -4.49038e-011 3.01286e-026   
     length 0.98922   
     axis -1.92217e-014 90 90   XYZ
    dof rx rz
    limits (-90.0 90.0)
           (-45.0 45.0)
  end
  begin
     id 22 
     name lfingers
     direction 1 -4.49051e-011 6.02588e-026   
     length 0.797535   
     axis -3.84436e-014 90 90   XYZ
    dof rx
    limits (0.0 90.0)
  end
  begin
     id 23
     name lthumb
     direction 0.707107 -6.34901e-011 0.707107   
     length 1.14511   
     axis -90 45 2.19363e-014   XYZ
    dof rx rz
    limits (-45.0 45.0)
           (-45.0 45.0)
  end
  begin
     id 24 
     name rclavicle
     direction -0.893894 0.441652 -0.0767889   
     length 3.29361  
     axis 0 0 0   XYZ 
    dof ry rz
    limits (-10.0 20.0)
           (-20.0 0.0)
  end
  begin
     id 25 
     name rhumerus
     direction -1 -4.48945e-011 8.0491e-028  
     length 4.71404   
     axis 180 30 90   XYZ
    dof rx ry rz
    limits (-90.0 60.0)
           (-90.0 90.0)
           (-90.0 90.0)
  end
  begin
     id 26 
     name rradius
     direction -1 -4.48986e-011 9.27795e-027   
     length 2.83468   
     axis 180 30 90   XYZ
    dof rx
    limits (-10.0 170.0)
  end
  begin
     id 27 
     name rwrist
     direction -1 -4.49029e-011 1.5064e-026   
     length 1.41734   
     axis -9.31234e-015 -90 -90   XYZ
    dof ry
    limits (-180.0 0.0)
  end
  begin
     id 28
     name rhand
     direction -1 -4.48857e-011 3.01165e-026   
     length 0.868195   
     axis -1.92217e-014 -90 -90   XYZ
    dof rx rz
    limits (-90.0 90.0)
           (-45.0 45.0)
  end
  begin
     id 29
     name rfingers
     direction -1 -4.49048e-011 6.02585e-026   
     length 0.699961   
     axis -3.84436e-014 -90 -90   XYZ
    dof rx
    limits (0.0 90.0)
  end
  begin
     id 30
     name rthumb
     direction -0.707107 -6.34854e-011 0.707107   
     length 1.00501   
     axis -90 -45 -2.19363e-014   XYZ
    dof rx rz
    limits (-45.0 45.0)
           (-45.0 45.0)
  end
:hierarchy
  begin
    root lhipjoint rhipjoint lowerback
    lhipjoint lfemur
    lfemur ltibia
    ltibia lfoot
    lfoot ltoes
    rhipjoint rfemur
    rfemur rtibia
    rtibia rfoot
    rfoot rtoes
    lowerback upperback
    upperback thorax
    thorax lowerneck lclavicle rclavicle
    lowerneck upperneck
    upperneck head
    lclavicle lhumerus
    lhumerus lradius
    lradius lwrist
    lwrist lhand lthumb
    lhand lfingers
    rclavicle rhumerus
    rhumerus rradius
    rradius rwrist
    rwrist rhand rthumb
    rhand rfingers
  end

#!OML:ASF H:\ManfredObstacles\Project 1\Capture day 2\Session 1\male.ASF
:FULLY-SPECIFIED
:DEGREES
113
root 1.45088 15.8765 28.6738 -171.011 4.05604 176.828
lowerback -4.30108 2.58593 -3.15183
upperback -0.160049 3.74928 -2.42642
thorax 2.20744 1.88748 -0.500943
lowerneck -37.636 0.213692 3.25756
upperneck 36.2431 -2.80637 -0.310994
head 20.6959 -0.934217 -1.61398
rclavicle -2.72832e-014 -9.54166e-015
rhumerus -37.4296 -26.5651 -76.0678
rradius 24.7799
rwrist 37.4943
rhand -1.47719 -6.36894
rfingers 7.12502
rthumb 24.1748 -34.8655
lclavicle -2.72832e-014 -9.54166e-015
lhumerus -24.98 7.98478 83.16
lradius 20.8724
lwrist -48.4658
lhand 0.477028 5.62841
lfingers 7.12502
lthumb 26.0472 33.8627
rfemur -5.52946 1.783 24.1124
rtibia 18.7529
rfoot -10.9136 -19.6411
rtoes -12.9316
lfemur -27.9808 -10.0334 -16.5977
ltibia 25.0271
lfoot 7.21137 17.69
ltoes 7.81335
114
root 1.44934 15.8772 28.6677 -170.985 4.04303 176.767
lowerback -4.8595 0.676994 -4.22347
upperback 0.249123 1.17418 -0.289548
thorax 2.90567 0.530487 2.15615
lowerneck -36.0892 0.778478 1.26193
upperneck 35.2729 1.77977 -0.74458
head 19.8026 1.06985 0.0116934
rclavicle -8.87077e-015 -6.55989e-015
rhumerus -34.3894 -19.3018 -76.5941
rradius 24.1421
rwrist 36.5444
rhand -1.36447 -6.41077
rfingers 7.12502
rthumb 24.2828 -34.8929
lclavicle -8.87077e-015 -6.55989e-015
lhumerus -25.773 16.2005 83.6273
lradius 21.131
lwrist -49.4206
lhand 0.350018 5.86357
lfingers 7.12502
lthumb 25.9256 34.1157
rfemur -5.51526 1.80063 24.0391
rtibia 18.7154
rfoot -10.9393 -19.6668
rtoes -12.909
lfemur -28.0018 -10.0336 -16.6746
ltibia 25.0557
lfoot 7.15386 17.69
ltoes 7.84152
115
root 1.44821 15.8768 28.6617 -170.956 4.04416 176.751
lowerback -4.76627 -1.20449 -4.41536
upperback 0.385688 -1.38994 1.37658
thorax 3.2147 -0.77856 3.80046
lowerneck -38.6987 2.33688 -1.07277
upperneck 35.8894 5.83044 -1.0166
head 20.7947 2.10925 1.40029
rclavicle 2.15681e-014 -2.14687e-014
rhumerus -31.8739 -12.1853 -77.1774
rradius 23.6656
rwrist 35.6031
rhand -1.12867 -6.42742
rfingers 7.12502
rthumb 24.5089 -34.8791
lclavicle 2.15681e-014 -2.14687e-014
lhumerus -26.8506 23.8213 83.3642
lradius 21.4761
lwrist -50.8699
lhand 0.149226 5.6821
lfingers 7.12502
lthumb 25.7333 33.9622
rfemur -5.50573 1.83226 24.0193
rtibia 18.6834
rfoot -10.9529 -19.6994
rtoes -12.875
lfemur -28.0249 -10.0573 -16.6876
ltibia 25.0803
lfoot 7.10184 17.7353
ltoes 7.95873
116
root 1.44724 15.8767 28.6571 -170.921 4.06093 176.783
lowerback -4.908 0.691983 -4.21682
upperback 0.320884 1.19708 -0.286521
thorax 3.00566 0.538321 2.15876
lowerneck -35.9479 0.873573 1.46587
upperneck 34.9681 1.83507 -0.924038
head 19.5922 1.0793 -0.103477
rclavicle 8.57259e-015 -8.54774e-015
rhumerus -34.2952 -19.4259 -76.5921
rradius 24.1471
rwrist 36.5743
rhand -1.27337 -6.31024
rfingers 7.12502
rthumb 24.3702 -34.7806
lclavicle 8.57259e-015 -8.54774e-015
lhumerus -25.5424 16.0279 83.7992
lradius 21.1377
lwrist -49.3435
lhand 0.351344 5.90632
lfingers 7.12502
lthumb 25.9269 34.1583
rfemur -5.51411 1.83713 24.0453
rtibia 18.6662
rfoot -10.9651 -19.6953
rtoes -12.8825
lfemur -28.0508 -10.0462 -16.6542
ltibia 25.0953
lfoot 7.12823 17.7473
ltoes 7.86999
117
root 1.44559 15.8771 28.6506 -170.904 4.09174 176.743
lowerback -4.86304 0.699044 -4.25877
upperback 0.316707 1.20758 -0.304531
thorax 2.97495 0.543951 2.16357
lowerneck -36.0193 0.867866 1.51226
upperneck 35.0867 1.79448 -0.885767
head 19.6794 1.08086 -0.100824
rclavicle -6.26172e-015 7.35503e-015
rhumerus -34.2847 -19.3624 -76.6551
rradius 24.1552
rwrist 36.3891
rhand -1.24165 -6.35651
rfingers 7.12502
rthumb 24.4006 -34.8228
lclavicle -6.26172e-015 7.35503e-015
lhumerus -25.5432 15.922 83.8332
lradius 21.211
lwrist -49.2544
lhand 0.443075 5.89986
lfingers 7.12502
lthumb 26.0147 34.139
rfemur -5.50308 1.84245 23.986
rtibia 18.6505
rfoot -11.0049 -19.6849
rtoes -12.8563
lfemur -28.0494 -9.97789 -16.7282
ltibia 25.1067
lfoot 7.04622 17.7377
ltoes 8.03509
118
root 1.44385 15.8774 28.644 -170.871 4.11272 176.665
lowerback -4.81805 0.636798 -4.38606
upperback 0.375593 1.12809 -0.246122
thorax 3.01259 0.499554 2.28942
lowerneck -36.1847 0.745792 1.06877
upperneck 35.3866 1.80025 -0.601398
head 19.8901 1.07487 0.123338
rclavicle 6.73383e-015 5.96354e-016
rhumerus -34.0638 -19.1212 -76.7175
rradius 24.1409
rwrist 36.3287
rhand -1.16049 -6.47286
rfingers 7.12502
rthumb 24.4784 -34.9287
lclavicle 6.73383e-015 5.96354e-016
lhumerus -25.3721 16.0987 83.9749
lradius 21.2418
lwrist -49.1203
lhand 0.554293 5.97728
lfingers 7.12502
lthumb 26.1212 34.2007
rfemur -5.5117 1.8074 23.883
rtibia 18.6316
rfoot -11.0107 -19.6556
rtoes -12.877
lfemur -28.0673 -9.96545 -16.8279
ltibia 25.1195
lfoot 7.05626 17.744
ltoes 7.97515
119
root 1.44229 15.8782 28.6366 -170.855 4.14731 176.591
lowerback -4.69685 0.631307 -4.44232
upperback 0.308657 1.1181 -0.277404
thorax 2.87557 0.498683 2.28523
lowerneck -36.0404 0.669924 0.964435
upperneck 35.3695 1.75507 -0.593117
head 19.8428 1.04747 0.132905
rclavicle 5.76476e-015 -1.53064e-014
rhumerus -34.2364 -18.7694 -76.8391
rradius 24.3182
rwrist 35.9267
rhand -1.12524 -6.52346
rfingers 7.12502
rthumb 24.5122 -34.9747
lclavicle 5.76476e-015 -1.53064e-014
lhumerus -25.507 15.991 83.951
lradius 21.317
lwrist -49.0097
lhand 0.552689 5.9703
lfingers 7.12502
lthumb 26.1196 34.1939
rfemur -5.49481 1.83806 23.7907
rtibia 18.6137
rfoot -11.0521 -19.6708
rtoes -12.8783
lfemur -28.0595 -9.9894 -16.9095
ltibia 25.1314
lfoot 7.0247 17.7978
ltoes 8.02586
120
root 1.44022 15.8783 28.6296 -170.818 4.15274 176.598
lowerback -4.62273 0.629795 -4.42591
upperback 0.261799 1.11018 -0.276302
thorax 2.78627 0.497853 2.27492
lowerneck -35.9928 0.545241 0.758907
upperneck 35.4059 1.65832 -0.494561
head 19.8485 1.00036 0.191932
rclavicle -1.9133e-014 5.76476e-015
rhumerus -34.3139 -18.6871 -76.8471
rradius 24.3327
rwrist 35.7952
rhand -1.1388 -6.41964
rfingers 7.12502
rthumb 24.4992 -34.8726
lclavicle -1.9133e-014 5.76476e-015
lhumerus -25.6187 16.0042 83.913
lradius 21.359
lwrist -49.1929
lhand 0.465029 5.81277
lfingers 7.12502
lthumb 26.0357 34.0488
rfemur -5.49162 1.8303 23.7848
rtibia 18.5848
rfoot -11.0739 -19.6574
rtoes -12.9036
lfemur -28.0804 -9.96228 -16.9169
ltibia 25.1527
lfoot 6.97287 17.8067
ltoes 8.08922
121
root 1.4394 15.8779 28.624 -170.796 4.19101 176.626
lowerback -4.38385 -1.46769 -4.48583
upperback 0.676162 -1.76074 1.66132
thorax 3.34955 -0.977307 4.11188
lowerneck -39.3976 1.98941 -2.85093
upperneck 36.1779 6.11952 -0.105111
head 21.0153 2.07523 2.26196
rclavicle 9.74045e-015 -5.32743e-014
rhumerus -30.7618 -10.5868 -77.5156
rradius 23.653
rwrist 34.6523
rhand -0.966428 -6.64118
rfingers 7.12502
rthumb 24.6644 -35.0717
lclavicle 9.74045e-015 -5.32743e-014
lhumerus -26.0467 24.7499 84.0595
lradius 21.6679
lwrist -50.4179
lhand 0.224807 5.70757
lfingers 7.12502
lthumb 25.8057 33.9772
rfemur -5.4739 1.93705 23.8146
rtibia 18.5464
rfoot -11.0835 -19.7125
rtoes -12.8067
lfemur -28.0927 -9.89594 -16.8993
ltibia 25.1778
lfoot 6.95021 17.7889
ltoes 8.06292
122
root 1.43769 15.8786 28.6168 -170.755 4.1996 176.616
lowerback -4.52401 0.636544 -4.3878
upperback 0.188714 1.11073 -0.283868
thorax 2.65602 0.503058 2.2434
lowerneck -35.9849 0.594576 0.801657
upperneck 35.2985 1.70459 -0.532883
head 19.7831 1.01249 0.175119
rclavicle -2.84262e-014 -6.75868e-015
rhumerus -34.3909 -18.5037 -76.9469
rradius 24.3239
rwrist 35.6714
rhand -1.071 -6.58917
rfingers 7.12502
rthumb 24.5641 -35.0333
lclavicle -2.84262e-014 -6.75868e-015
lhumerus -25.6703 15.831 83.96
lradius 21.3985
lwrist -48.7905
lhand 0.563577 5.92681
lfingers 7.12502
lthumb 26.1301 34.1489
rfemur -5.46141 1.92444 23.791
rtibia 18.4873
rfoot -11.0794 -19.6983
rtoes -12.8794
lfemur -28.1279 -9.8171 -16.9366
ltibia 25.2169
lfoot 6.85243 17.7464
ltoes 8.13499
